<?xml version="1.0" encoding="UTF-8" standalone="no"?>
<svg
   xmlns:dc="http://purl.org/dc/elements/1.1/"
   xmlns:cc="http://creativecommons.org/ns#"
   xmlns:rdf="http://www.w3.org/1999/02/22-rdf-syntax-ns#"
   xmlns:svg="http://www.w3.org/2000/svg"
   xmlns="http://www.w3.org/2000/svg"
   version="1.1"
   id="svg4170"
   viewBox="0 0 225.00514 223.32043"
   height="223.32043"
   width="225.00514">
  <defs
     id="defs4172" />
  <metadata
     id="metadata4175">
    <rdf:RDF>
      <cc:Work
         rdf:about="">
        <dc:format>image/svg+xml</dc:format>
        <dc:type
           rdf:resource="http://purl.org/dc/dcmitype/StillImage" />
        <dc:title></dc:title>
      </cc:Work>
    </rdf:RDF>
  </metadata>
  <g
     transform="translate(-4.6402917,-822.84485)"
     id="layer1">
    <path
       id="path4134-5-9"
       d="m 112.39861,822.84704 c -3.44451,0.0227 -6.9092,0.19881 -10.3867,0.53711 -14.269499,1.38856 -27.2745,5.10312 -40.408252,11.54298 -12.92114,6.33558 -21.941151,12.87863 -32.152341,23.32033 -1.21077,1.23809 -2.38431,2.5028 -3.53321,3.78319 -10.797269,15.01066 -17.7972893,32.24511 -20.4824193,50.70119 -1.30891,8.99671 -2.28685,8.02148 8.0410203,8.02148 l 2.60351,0 c 2.78411,-13.42126 7.275949,-24.63398 13.828129,-34.57229 3.05981,-4.6411 6.43224,-8.96666 10.07617,-12.96483 15.103971,-21.28025 36.933204,-35.52419 61.992203,-40.34377 11.3712,-1.49299 16.81999,-1.39945 28.47851,-1.42968 9.85305,0.81441 23.20816,4.52126 32.9551,9.14649 15.87405,7.53275 30.19264,19.97042 39.79687,34.56446 22.1548,33.66515 21.92217,76.34913 -0.59962,109.82427 -2.78536,4.14 -5.84402,8.0037 -9.15624,11.6035 -9.34511,13.29493 -21.51352,23.72423 -36.38865,31.15433 -12.40796,6.1978 -23.82323,9.3139 -37.48245,10.2344 -22.938286,1.5458 -45.655089,-4.8807 -64.423842,-18.2246 -5.49389,-3.9059 -15.641341,-13.669 -20.005861,-19.2501 -10.70038,-13.68263 -17.852809,-30.43848 -20.193359,-47.3047 l -0.6543,-4.71874 -8.6796903,0 c 2.8816,17.74413 11.0641103,36.91951 22.2421893,51.67974 4.34107,5.7323 14.594891,16.2448 19.992191,20.4962 17.96147,14.1477 37.646573,22.3052 60.293002,24.9882 7.55433,0.895 22.24921,0.6196 29.93164,-0.5625 25.01627,-3.849 47.96851,-15.505 65.7129,-33.3711 1.38701,-1.3965 2.72149,-2.8314 4.02731,-4.2851 20.48704,-28.53473 27.15307,-65.07481 17.42189,-99.73062 -14.16658,-50.45181 -61.17834,-85.15977 -112.8457,-84.83984 z"
       style="opacity:1;fill:#634693;fill-opacity:1;stroke:none;stroke-width:2.15727496;stroke-linecap:round;stroke-linejoin:round;stroke-miterlimit:4;stroke-dasharray:none;stroke-dashoffset:0;stroke-opacity:1" />
  </g>
</svg>
