<?xml version="1.0" encoding="UTF-8" standalone="no"?>
<svg
   xmlns:dc="http://purl.org/dc/elements/1.1/"
   xmlns:cc="http://creativecommons.org/ns#"
   xmlns:rdf="http://www.w3.org/1999/02/22-rdf-syntax-ns#"
   xmlns:svg="http://www.w3.org/2000/svg"
   xmlns="http://www.w3.org/2000/svg"
   version="1.1"
   id="svg4170"
   viewBox="0 0 259.54413 262.43057"
   height="262.43057"
   width="259.54413">
  <defs
     id="defs4172" />
  <metadata
     id="metadata4175">
    <rdf:RDF>
      <cc:Work
         rdf:about="">
        <dc:format>image/svg+xml</dc:format>
        <dc:type
           rdf:resource="http://purl.org/dc/dcmitype/StillImage" />
        <dc:title></dc:title>
      </cc:Work>
    </rdf:RDF>
  </metadata>
  <g
     transform="translate(-4.6402928,-783.7347)"
     id="layer1">
    <g
       transform="translate(118.34351,38.784724)"
       id="g4845">
      <path
         style="color:#000000;font-style:normal;font-variant:normal;font-weight:normal;font-stretch:normal;font-size:medium;line-height:normal;font-family:sans-serif;text-indent:0;text-align:start;text-decoration:none;text-decoration-line:none;text-decoration-style:solid;text-decoration-color:#000000;letter-spacing:normal;word-spacing:normal;text-transform:none;direction:ltr;block-progression:tb;writing-mode:lr-tb;baseline-shift:baseline;text-anchor:start;white-space:normal;clip-rule:nonzero;display:inline;overflow:visible;visibility:visible;opacity:0.5;isolation:auto;mix-blend-mode:normal;color-interpolation:sRGB;color-interpolation-filters:linearRGB;solid-color:#000000;solid-opacity:1;fill:#d32354;fill-opacity:1;fill-rule:nonzero;stroke:none;stroke-width:3.17500043;stroke-linecap:round;stroke-linejoin:round;stroke-miterlimit:4;stroke-dasharray:none;stroke-dashoffset:0;stroke-opacity:1;color-rendering:auto;image-rendering:auto;shape-rendering:auto;text-rendering:auto;enable-background:accumulate"
         d="m 19.426411,761.79627 c -7.16617,-0.59883 -14.4555503,-0.56693 -21.7987203,0.14778 -14.9972297,1.45939 -28.8410387,5.41493 -42.6082577,12.16535 -13.442059,6.59104 -23.313152,13.75045 -33.919787,24.59648 -18.324837,18.73856 -30.026346,42.27662 -33.764756,67.97242 -0.31083,2.13649 -0.61913,3.6692 -0.78248,5.34448 -0.0817,0.83765 -0.15723,1.73718 0.037,2.96753 0.19415,1.23035 0.84695,2.95389 2.10384,4.20767 2.51377,2.50757 4.88303,2.33575 6.61417,2.39913 1.73114,0.0635 3.54175,-0.008 6.038384,-0.008 l 8.902563,0 c 2.969862,5.6e-4 5.493388,-2.17142 5.935033,-5.10826 l 0.302665,-2.03002 c 2.46446,-16.43263 7.077244,-29.15108 14.37254,-40.21652 14.324514,-21.72737 35.602943,-36.10389 60.2731353,-40.89569 10.84716,-1.41411 15.93399,-1.33875 27.3056097,-1.36562 8.8405,0.76199 21.87488,4.34767 30.80462,8.58512 14.88238,7.06216 28.5067,18.89586 37.49997,32.5615 20.94271,31.82331 20.72561,71.92516 -0.5684,103.57531 -8.95929,13.3166 -20.71128,23.595 -35.39614,30.9301 -11.85551,5.9219 -22.31221,8.7778 -35.33711,9.6555 -21.6417197,1.4589 -43.061568,-4.5982 -60.775093,-17.1919 -4.508133,-3.2051 -15.138991,-13.4087 -18.831199,-18.13 -10.073449,-12.881 -16.850788,-28.78769 -19.045272,-44.60134 l -0.656992,-4.73178 c -0.412134,-2.96602 -2.947899,-5.17421 -5.942418,-5.17474 l -8.946851,0 -8.946845,0 c -3.53509,9.8e-4 -6.30298,3.04297 -5.97195,6.56251 l 0.36911,3.92719 c 1.96067,20.75233 11.07849,43.48246 24.30856,60.95226 4.970433,6.5633 14.842895,16.7028 21.134345,21.6585 18.625669,14.6708 39.369687,23.28847 62.8050953,26.19087 0.0227,0 0.0435,0.011 0.0665,0.015 0.21166,0.051 0.42614,0.09 0.64218,0.1179 0.19313,0.023 0.50997,-0.038 0.70866,-0.015 l 0,0.059 c 0.28196,0 0.56315,-0.03 0.84155,-0.074 8.70973,0.8517 21.8298297,0.7057 30.1107797,-0.5684 26.35955,-4.0557 50.57532,-16.35017 69.2864,-35.18947 31.29169,-31.5062 43.11386,-77.27492 31.06299,-120.1919 C 113.69969,801.17879 69.58973,765.98811 19.42664,761.7962 Z"
         id="path4134-1" />
      <path
         style="color:#000000;font-style:normal;font-variant:normal;font-weight:normal;font-stretch:normal;font-size:medium;line-height:normal;font-family:sans-serif;text-indent:0;text-align:start;text-decoration:none;text-decoration-line:none;text-decoration-style:solid;text-decoration-color:#000000;letter-spacing:normal;word-spacing:normal;text-transform:none;direction:ltr;block-progression:tb;writing-mode:lr-tb;baseline-shift:baseline;text-anchor:start;white-space:normal;clip-rule:nonzero;display:inline;overflow:visible;visibility:visible;opacity:0.5;isolation:auto;mix-blend-mode:normal;color-interpolation:sRGB;color-interpolation-filters:linearRGB;solid-color:#000000;solid-opacity:1;fill:#21a8ae;fill-opacity:1;fill-rule:nonzero;stroke:none;stroke-width:3.17500043;stroke-linecap:round;stroke-linejoin:round;stroke-miterlimit:4;stroke-dasharray:none;stroke-dashoffset:0;stroke-opacity:1;color-rendering:auto;image-rendering:auto;shape-rendering:auto;text-rendering:auto;enable-background:accumulate"
         d="m 32.971671,745.37097 c -7.16617,-0.59883 -14.45556,-0.56693 -21.79872,0.14778 -14.9972403,1.45939 -28.84105,5.41493 -42.608267,12.16536 -13.442059,6.59104 -23.313152,13.75044 -33.919783,24.59648 -18.324837,18.73855 -30.026352,42.27662 -33.764758,67.97241 -0.310828,2.13649 -0.619132,3.66921 -0.782479,5.34448 -0.08168,0.83766 -0.157224,1.73719 0.03704,2.96754 0.194155,1.23035 0.846955,2.95389 2.10384,4.20767 2.513771,2.50756 4.883028,2.33575 6.614173,2.39913 1.731144,0.0635 3.541746,-0.008 6.038384,-0.008 l 8.902559,0 c 2.969866,5.7e-4 5.493392,-2.17141 5.935037,-5.10826 l 0.302664,-2.02958 c 2.464459,-16.43263 7.077244,-29.15108 14.37254,-40.21651 14.324514,-21.72737 35.602942,-36.1039 60.2731397,-40.8957 10.8471603,-1.41411 15.9339903,-1.33874 27.3056103,-1.36562 8.8405,0.76199 21.87488,4.34767 30.80462,8.58512 14.88238,7.06216 28.5067,18.89586 37.499969,32.5615 20.9427,31.82332 20.72561,71.92516 -0.568399,103.5753 -8.95929,13.31656 -20.71128,23.59506 -35.39614,30.93016 -11.85551,5.9218 -22.31221,8.7777 -35.33711,9.6555 -21.6417203,1.4584 -43.06157,-4.5987 -60.775098,-17.1924 -4.508133,-3.2051 -15.138991,-13.4087 -18.8312,-18.13 -10.073449,-12.88097 -16.850787,-28.78768 -19.045271,-44.60134 l -0.656992,-4.73178 c -0.412135,-2.96602 -2.947899,-5.17421 -5.942418,-5.17474 l -8.946852,0 -8.946847,0 c -3.535087,10e-4 -6.302983,3.04298 -5.971953,6.56251 l 0.369114,3.92719 c 1.960675,20.75233 11.078493,43.48246 24.308562,60.95226 4.970433,6.5633 14.842895,16.7028 21.134345,21.6585 18.625669,14.6708 39.36969,23.2885 62.8050997,26.1909 0.0227,0 0.0435,0.011 0.0665,0.015 0.21165,0.051 0.42618,0.09 0.64222,0.1179 0.19313,0.023 0.50997,-0.038 0.70866,-0.015 l 0,0.059 c 0.2819503,0 0.5631103,-0.03 0.8415503,-0.074 8.70969,0.8517 21.82979,0.7057 30.11074,-0.5684 26.35955,-4.0557 50.57532,-16.3502 69.286399,-35.1895 31.29169,-31.5062 43.11386,-77.27492 31.06299,-120.1919 C 127.24495,784.75308 83.134961,749.5624 32.971901,745.37048 Z"
         id="path4134" />
      <path
         style="color:#000000;font-style:normal;font-variant:normal;font-weight:normal;font-stretch:normal;font-size:medium;line-height:normal;font-family:sans-serif;text-indent:0;text-align:start;text-decoration:none;text-decoration-line:none;text-decoration-style:solid;text-decoration-color:#000000;letter-spacing:normal;word-spacing:normal;text-transform:none;direction:ltr;block-progression:tb;writing-mode:lr-tb;baseline-shift:baseline;text-anchor:start;white-space:normal;clip-rule:nonzero;display:inline;overflow:visible;visibility:visible;opacity:1;isolation:auto;mix-blend-mode:normal;color-interpolation:sRGB;color-interpolation-filters:linearRGB;solid-color:#000000;solid-opacity:1;fill:#634692;fill-opacity:1;fill-rule:nonzero;stroke:none;stroke-width:3.17500043;stroke-linecap:round;stroke-linejoin:round;stroke-miterlimit:4;stroke-dasharray:none;stroke-dashoffset:0;stroke-opacity:1;color-rendering:auto;image-rendering:auto;shape-rendering:auto;text-rendering:auto;enable-background:accumulate"
         d="m 8.6120507,761.4639 c -3.63602,0.0227 -7.2952,0.209 -10.96679,0.5664 -14.9972497,1.45939 -28.8401957,5.41561 -42.6074257,12.16603 -13.398242,6.56957 -23.24907,13.7054 -33.816412,24.49217 -10.642559,15.39851 -17.601119,32.94667 -20.322269,51.65041 -0.310677,2.13649 -0.61985,3.67041 -0.783201,5.34569 -0.08164,0.83766 -0.157913,1.73647 0.03704,2.96682 0.194267,1.23035 0.84859,2.95324 2.105468,4.20703 2.513802,2.50756 4.88211,2.33699 6.613281,2.40037 1.731141,0.0635 3.542419,-0.008 6.039061,-0.008 l 3.308598,0 c 2.675282,-12.08579 6.7996,-22.04341 12.6582,-30.92964 3.99982,-6.06694 8.544131,-11.55965 13.55078,-16.43165 14.324431,-21.72283 35.600452,-36.09751 60.2675897,-40.8887 10.8471303,-1.41411 15.9350203,-1.33837 27.3066303,-1.3652 8.8405,0.76195 21.87496,4.34649 30.8047,8.58398 14.88238,7.06212 28.5067,18.89684 37.499969,32.56248 20.94271,31.82332 20.72565,71.9241 -0.568359,103.5742 -3.72847,5.54184 -7.94842,10.55064 -12.65427,15.04694 -0.29783,0.4593 -0.58587,0.923 -0.89261,1.3788 -8.95922,13.3167 -20.7097,23.5947 -35.39452,30.9297 -11.85555,5.9219 -22.31297,8.7786 -35.3379,9.6563 -21.6416803,1.4589 -43.061859,-4.5997 -60.775369,-17.1934 -4.508141,-3.2051 -15.137861,-13.4076 -18.830081,-18.1289 -10.073419,-12.881 -16.852368,-28.78788 -19.046867,-44.60154 l -0.656251,-4.73242 c -0.412119,-2.96602 -2.94884,-5.1733 -5.943359,-5.17383 l -8.945313,0 -0.240227,0 c 2.975988,19.07051 11.565561,39.19739 23.54492,55.01559 4.970418,6.5633 14.841379,16.7026 21.132818,21.6582 18.625661,14.6709 39.369269,23.2891 62.8046787,26.1914 0.0227,0 0.0454,0.011 0.0684,0.015 0.21166,0.051 0.42459,0.09 0.64063,0.1171 0.19314,0.023 0.51031,-0.038 0.709,-0.015 l 0,0.061 c 0.2819603,0 0.5633403,-0.03 0.8417803,-0.074 8.70969,0.8517 21.8304,0.7058 30.11134,-0.5684 26.35956,-4.0556 50.57408,-16.3501 69.285159,-35.1894 0.16781,-0.1689 0.32731,-0.3439 0.49414,-0.5137 20.52835,-29.8099 27.05797,-67.51567 17.02344,-103.25193 C 113.7173,801.26739 69.609121,766.07655 19.446031,761.88464 l -0.002,0 c -3.58306,-0.29934 -7.19599,-0.44239 -10.8320103,-0.41994 z M -94.139906,871.11233 c -3.535071,10e-4 -6.303674,3.04297 -5.972654,6.5625 l 0.369149,3.92776 c 0.0026,0.0265 0.0072,0.0559 0.0098,0.0839 0.379979,-0.003 0.68448,-0.0113 1.099608,-0.0113 l 8.90234,0 c 2.969881,5.7e-4 5.491963,-2.17251 5.933601,-5.10935 l 0.30274,-2.02931 c 0.174198,-1.16152 0.362721,-2.30067 0.558599,-3.4258 l -2.25586,0 -8.947271,0 z"
         id="path4134-1-2" />
    </g>
  </g>
</svg>
