<?xml version="1.0" encoding="UTF-8" standalone="no"?>
<svg
   xmlns:dc="http://purl.org/dc/elements/1.1/"
   xmlns:cc="http://creativecommons.org/ns#"
   xmlns:rdf="http://www.w3.org/1999/02/22-rdf-syntax-ns#"
   xmlns:svg="http://www.w3.org/2000/svg"
   xmlns="http://www.w3.org/2000/svg"
   xmlns:sodipodi="http://sodipodi.sourceforge.net/DTD/sodipodi-0.dtd"
   xmlns:inkscape="http://www.inkscape.org/namespaces/inkscape"
   id="svg4688"
   version="1.1"
   viewBox="0 0 72.454498 69.835422"
   height="263.94489"
   width="273.84378"
   sodipodi:docname="chromatic_aberration_concept.svg"
   inkscape:version="0.91 r13725">
  <sodipodi:namedview
     pagecolor="#f9dbb9"
     bordercolor="#666666"
     borderopacity="1"
     objecttolerance="10"
     gridtolerance="10"
     guidetolerance="10"
     inkscape:pageopacity="0"
     inkscape:pageshadow="2"
     inkscape:window-width="1304"
     inkscape:window-height="745"
     id="namedview7"
     showgrid="false"
     inkscape:zoom="1.3111111"
     inkscape:cx="123.47826"
     inkscape:cy="105.4662"
     inkscape:window-x="54"
     inkscape:window-y="-8"
     inkscape:window-maximized="1"
     inkscape:current-layer="layer1"
     fit-margin-top="0"
     fit-margin-left="0"
     fit-margin-right="0"
     fit-margin-bottom="0" />
  <defs
     id="defs4682" />
  <metadata
     id="metadata4685">
    <rdf:RDF>
      <cc:Work
         rdf:about="">
        <dc:format>image/svg+xml</dc:format>
        <dc:type
           rdf:resource="http://purl.org/dc/dcmitype/StillImage" />
        <dc:title></dc:title>
      </cc:Work>
    </rdf:RDF>
  </metadata>
  <g
     transform="translate(-67.619776,-183.25756)"
     id="layer1">
    <path
       style="color:#000000;font-style:normal;font-variant:normal;font-weight:normal;font-stretch:normal;font-size:medium;line-height:normal;font-family:sans-serif;text-indent:0;text-align:start;text-decoration:none;text-decoration-line:none;text-decoration-style:solid;text-decoration-color:#000000;letter-spacing:normal;word-spacing:normal;text-transform:none;direction:ltr;block-progression:tb;writing-mode:lr-tb;baseline-shift:baseline;text-anchor:start;white-space:normal;clip-rule:nonzero;display:inline;overflow:visible;visibility:visible;opacity:0.5;isolation:auto;mix-blend-mode:normal;color-interpolation:sRGB;color-interpolation-filters:linearRGB;solid-color:#000000;solid-opacity:1;fill:#d32354;fill-opacity:1;fill-rule:nonzero;stroke:none;stroke-width:3.17500043;stroke-linecap:round;stroke-linejoin:round;stroke-miterlimit:4;stroke-dasharray:none;stroke-dashoffset:0;stroke-opacity:1;color-rendering:auto;image-rendering:auto;shape-rendering:auto;text-rendering:auto;enable-background:accumulate"
       d="m 106.62709,188.11539 c -1.89605,-0.15844 -3.8247,-0.15 -5.76758,0.0391 -3.968018,0.38613 -7.630859,1.4327 -11.273436,3.21875 -3.556545,1.74388 -6.168272,3.63814 -8.974611,6.50782 -4.848447,4.95791 -7.944472,11.18569 -8.933593,17.98437 -0.08224,0.56528 -0.163812,0.97081 -0.207031,1.41406 -0.02161,0.22163 -0.0416,0.45963 0.0098,0.78516 0.05137,0.32553 0.22409,0.78155 0.556641,1.11328 0.665102,0.66346 1.291968,0.618 1.75,0.63477 0.458032,0.0168 0.937087,-0.002 1.597656,-0.002 l 2.35547,0 c 0.785776,1.5e-4 1.453459,-0.57452 1.570311,-1.35156 l 0.08008,-0.53711 c 0.652055,-4.3478 1.872521,-7.71289 3.802735,-10.64062 3.790028,-5.7487 9.419946,-9.55249 15.947269,-10.82032 2.869979,-0.37415 4.215869,-0.35421 7.224609,-0.36132 2.33905,0.20161 5.78773,1.15032 8.15039,2.27148 3.93763,1.86853 7.5424,4.99953 9.92187,8.61523 5.54109,8.41992 5.48365,19.0302 -0.15039,27.4043 -2.37048,3.52335 -5.47986,6.24285 -9.36523,8.1836 -3.13677,1.56682 -5.90344,2.32244 -9.34961,2.55468 -5.726039,0.38588 -11.393376,-1.21674 -16.08008,-4.54882 -1.192777,-0.84802 -4.005525,-3.5477 -4.982422,-4.79688 -2.665267,-3.4081 -4.458438,-7.61675 -5.039062,-11.80078 l -0.173829,-1.25195 c -0.109044,-0.78476 -0.779965,-1.36901 -1.572265,-1.36915 l -2.367188,0 -2.367187,0 c -0.935325,2.6e-4 -1.667663,0.80512 -1.580078,1.73633 l 0.09766,1.03907 c 0.518762,5.49072 2.931185,11.50474 6.431641,16.12695 1.315094,1.73654 3.927183,4.41929 5.591796,5.73047 4.928042,3.88167 10.416564,6.16176 16.617184,6.92968 0.006,7.9e-4 0.0115,0.003 0.0176,0.004 0.056,0.0135 0.11275,0.0239 0.16991,0.0312 0.0511,0.006 0.13493,-0.01 0.1875,-0.004 l 0,0.0156 c 0.0746,-0.001 0.149,-0.008 0.22266,-0.0195 2.30445,0.22535 5.77581,0.18672 7.96681,-0.15039 6.9743,-1.07306 13.38139,-4.32598 18.33203,-9.31055 8.27926,-8.33601 11.40721,-20.44566 8.21875,-31.80078 -3.69364,-13.15413 -15.3644,-22.465 -28.63672,-23.57411 z"
       id="path4134-1"
       inkscape:connector-curvature="0"
       sodipodi:nodetypes="ccsssscscscccsccssssssscccccccssccccccssscc" />
    <path
       style="color:#000000;font-style:normal;font-variant:normal;font-weight:normal;font-stretch:normal;font-size:medium;line-height:normal;font-family:sans-serif;text-indent:0;text-align:start;text-decoration:none;text-decoration-line:none;text-decoration-style:solid;text-decoration-color:#000000;letter-spacing:normal;word-spacing:normal;text-transform:none;direction:ltr;block-progression:tb;writing-mode:lr-tb;baseline-shift:baseline;text-anchor:start;white-space:normal;clip-rule:nonzero;display:inline;overflow:visible;visibility:visible;opacity:0.5;isolation:auto;mix-blend-mode:normal;color-interpolation:sRGB;color-interpolation-filters:linearRGB;solid-color:#000000;solid-opacity:1;fill:#21a8ae;fill-opacity:1;fill-rule:nonzero;stroke:none;stroke-width:3.17500043;stroke-linecap:round;stroke-linejoin:round;stroke-miterlimit:4;stroke-dasharray:none;stroke-dashoffset:0;stroke-opacity:1;color-rendering:auto;image-rendering:auto;shape-rendering:auto;text-rendering:auto;enable-background:accumulate"
       d="m 110.21094,183.76953 c -1.89605,-0.15844 -3.8247,-0.15 -5.76758,0.0391 -3.96802,0.38613 -7.630861,1.4327 -11.273438,3.21875 -3.556545,1.74388 -6.168272,3.63814 -8.97461,6.50782 -4.848447,4.95791 -7.944473,11.18569 -8.933593,17.98437 -0.08224,0.56528 -0.163812,0.97081 -0.207031,1.41406 -0.02161,0.22163 -0.0416,0.45963 0.0098,0.78516 0.05137,0.32553 0.22409,0.78155 0.556641,1.11328 0.665102,0.66346 1.291968,0.618 1.75,0.63477 0.458032,0.0168 0.937087,-0.002 1.597656,-0.002 l 2.355469,0 c 0.785777,1.5e-4 1.45346,-0.57452 1.570312,-1.35156 l 0.08008,-0.53711 c 0.652055,-4.3478 1.872521,-7.71289 3.802735,-10.64062 3.790028,-5.7487 9.419946,-9.55249 15.947269,-10.82032 2.86998,-0.37415 4.21587,-0.35421 7.22461,-0.36132 2.33905,0.20161 5.78773,1.15032 8.15039,2.27148 3.93763,1.86853 7.5424,4.99953 9.92187,8.61523 5.54109,8.41992 5.48365,19.0302 -0.15039,27.4043 -2.37048,3.52335 -5.47986,6.24285 -9.36523,8.1836 -3.13677,1.56682 -5.90344,2.32244 -9.34961,2.55468 -5.72604,0.38588 -11.393377,-1.21674 -16.080081,-4.54882 -1.192777,-0.84802 -4.005525,-3.5477 -4.982422,-4.79688 -2.665267,-3.4081 -4.458438,-7.61675 -5.039062,-11.80078 l -0.173829,-1.25195 c -0.109044,-0.78476 -0.779965,-1.36901 -1.572265,-1.36915 l -2.367188,0 -2.367187,0 c -0.935325,3.6e-4 -1.667663,0.80512 -1.580078,1.73633 l 0.09766,1.03907 c 0.518762,5.49072 2.931185,11.50474 6.431641,16.12695 1.315094,1.73654 3.927183,4.41929 5.591796,5.73047 4.928042,3.88167 10.416564,6.16176 16.617185,6.92968 0.006,7.6e-4 0.0115,0.003 0.0176,0.004 0.056,0.0135 0.11276,0.0239 0.16992,0.0312 0.0511,0.006 0.13493,-0.01 0.1875,-0.004 l 0,0.0156 c 0.0746,-0.001 0.14899,-0.008 0.22266,-0.0195 2.30444,0.22535 5.7758,0.18672 7.9668,-0.15039 6.9743,-1.07306 13.38139,-4.32598 18.33203,-9.31055 8.27926,-8.33601 11.40721,-20.44566 8.21875,-31.80078 -3.69364,-13.15424 -15.36441,-22.46511 -28.63672,-23.57422 z"
       id="path4134"
       inkscape:connector-curvature="0"
       sodipodi:nodetypes="ccsssscscscccsccssssssscccccccssccccccssscc" />
    <path
       style="color:#000000;font-style:normal;font-variant:normal;font-weight:normal;font-stretch:normal;font-size:medium;line-height:normal;font-family:sans-serif;text-indent:0;text-align:start;text-decoration:none;text-decoration-line:none;text-decoration-style:solid;text-decoration-color:#000000;letter-spacing:normal;word-spacing:normal;text-transform:none;direction:ltr;block-progression:tb;writing-mode:lr-tb;baseline-shift:baseline;text-anchor:start;white-space:normal;clip-rule:nonzero;display:inline;overflow:visible;visibility:visible;opacity:1;isolation:auto;mix-blend-mode:normal;color-interpolation:sRGB;color-interpolation-filters:linearRGB;solid-color:#000000;solid-opacity:1;fill:#634692;fill-opacity:1;fill-rule:nonzero;stroke:none;stroke-width:3.17500043;stroke-linecap:round;stroke-linejoin:round;stroke-miterlimit:4;stroke-dasharray:none;stroke-dashoffset:0;stroke-opacity:1;color-rendering:auto;image-rendering:auto;shape-rendering:auto;text-rendering:auto;enable-background:accumulate"
       d="m 103.76579,188.02745 c -0.96203,0.006 -1.93019,0.0553 -2.90163,0.14986 -3.968023,0.38613 -7.630637,1.43288 -11.273217,3.21893 -3.544952,1.7382 -6.151317,3.62622 -8.94726,6.48022 -2.815844,4.07419 -4.656963,8.71714 -5.376934,13.66584 -0.0822,0.56528 -0.164002,0.97113 -0.207222,1.41438 -0.0216,0.22163 -0.04178,0.45944 0.0098,0.78497 0.0514,0.32553 0.224523,0.78138 0.557072,1.11311 0.66511,0.66346 1.291725,0.61833 1.749764,0.6351 0.458031,0.0168 0.937265,-0.002 1.597835,-0.002 l 0.8754,0 c 0.707835,-3.1977 1.799061,-5.83232 3.349149,-8.18347 1.058286,-1.60521 2.260635,-3.05849 3.585311,-4.34754 3.790006,-5.7475 9.419287,-9.5508 15.945802,-10.81847 2.86997,-0.37415 4.21614,-0.35411 7.22488,-0.36121 2.33905,0.2016 5.78775,1.15001 8.15041,2.27118 3.93763,1.86852 7.5424,4.99979 9.92187,8.61549 5.54109,8.41992 5.48366,19.02992 -0.15038,27.40401 -0.98649,1.46627 -2.10302,2.79152 -3.34811,3.98116 -0.0788,0.12153 -0.15501,0.24421 -0.23617,0.36483 -2.37046,3.52335 -5.47944,6.24274 -9.3648,8.18348 -3.13678,1.56682 -5.90364,2.32265 -9.34982,2.55489 -5.726028,0.386 -11.393452,-1.217 -16.080152,-4.54908 -1.192779,-0.84802 -4.005226,-3.54743 -4.982126,-4.79661 -2.665259,-3.4081 -4.458856,-7.6168 -5.039484,-11.80083 l -0.173633,-1.25212 c -0.10904,-0.78476 -0.780214,-1.36877 -1.572514,-1.36891 l -2.366781,0 -0.06356,0 c 0.787397,5.04574 3.060055,10.37098 6.229594,14.55622 1.31509,1.73654 3.926782,4.41922 5.591392,5.7304 4.92804,3.88167 10.416454,6.16189 16.617074,6.92981 0.006,7.9e-4 0.012,0.003 0.0181,0.004 0.056,0.0135 0.11234,0.0237 0.1695,0.031 0.0511,0.006 0.13502,-0.0101 0.18759,-0.004 l 0,0.016 c 0.0746,-0.001 0.14905,-0.008 0.22272,-0.0196 2.30444,0.22535 5.77596,0.18673 7.96696,-0.15038 6.9743,-1.07306 13.38106,-4.32597 18.3317,-9.31054 0.0444,-0.0447 0.0866,-0.091 0.13074,-0.13591 5.43146,-7.8872 7.15909,-17.86353 4.50412,-27.31875 -3.69389,-13.15425 -15.36418,-22.46516 -28.6365,-23.57427 l -5.2e-4,0 c -0.94802,-0.0792 -1.90394,-0.11705 -2.86597,-0.11111 z M 76.579331,217.0386 c -0.935321,2.7e-4 -1.667846,0.80512 -1.580264,1.73633 l 0.09767,1.03922 c 6.95e-4,0.007 0.0019,0.0148 0.0026,0.0222 0.100536,-7.9e-4 0.181102,-0.003 0.290938,-0.003 l 2.355411,0 c 0.785781,1.5e-4 1.453082,-0.57481 1.569932,-1.35185 l 0.0801,-0.53692 c 0.04609,-0.30732 0.09597,-0.60872 0.147796,-0.90641 l -0.596863,0 -2.367299,0 z"
       id="path4134-1-2"
       inkscape:connector-curvature="0" />
    <path
       id="path4496-7"
       d="m 99.338974,183.78841 a 31.249636,31.219776 0 0 0 -31.163885,29.52512 l 5.883656,0 a 25.365429,25.341193 0 0 1 23.611049,-23.56081 l 0,22.76819 a 2.9994137,2.9965479 0 0 0 -1.329732,2.48679 2.9994137,2.9965479 0 0 0 2.998912,2.99584 2.9994137,2.9965479 0 0 0 0.4166,-0.0296 l 6.120326,6.12132 c 0.69334,0.69333 1.78543,0.71615 2.44911,0.0495 0.66359,-0.66357 0.64077,-1.75516 -0.0495,-2.44811 l -6.01557,-6.01559 a 2.9994137,2.9965479 0 0 0 0.0794,-0.6735 2.9994137,2.9965479 0 0 0 -1.32976,-2.48787 l 0,-22.77028 a 25.365429,25.341193 0 0 1 23.69582,25.25815 25.365429,25.341193 0 0 1 -25.365976,25.341 25.365429,25.341193 0 0 1 -25.305313,-23.64672 l -5.883656,0 a 31.249636,31.219776 0 0 0 31.188969,29.52512 31.249636,31.219776 0 0 0 31.249646,-31.2194 31.249636,31.219776 0 0 0 -31.249646,-31.2193 z"
       style="opacity:1;fill:none;fill-opacity:1;fill-rule:nonzero;stroke:#544389;stroke-width:1.06139588;stroke-linecap:round;stroke-linejoin:round;stroke-miterlimit:4;stroke-dasharray:none;stroke-dashoffset:0;stroke-opacity:1"
       inkscape:connector-curvature="0" />
  </g>
</svg>
