<?xml version="1.0" encoding="UTF-8" standalone="no"?>
<svg
   xmlns:dc="http://purl.org/dc/elements/1.1/"
   xmlns:cc="http://creativecommons.org/ns#"
   xmlns:rdf="http://www.w3.org/1999/02/22-rdf-syntax-ns#"
   xmlns:svg="http://www.w3.org/2000/svg"
   xmlns="http://www.w3.org/2000/svg"
   id="svg4688"
   version="1.1"
   viewBox="0 0 190.49999 190.50001"
   height="720"
   width="720">
  <defs
     id="defs4682" />
  <metadata
     id="metadata4685">
    <rdf:RDF>
      <cc:Work
         rdf:about="">
        <dc:format>image/svg+xml</dc:format>
        <dc:type
           rdf:resource="http://purl.org/dc/dcmitype/StillImage" />
        <dc:title></dc:title>
      </cc:Work>
    </rdf:RDF>
  </metadata>
  <g
     transform="translate(0,-106.49998)"
     id="layer1">
    <path
       id="path4496-7"
       d="M 95.158143,107.31082 A 94.53082,94.440496 0 0 0 0.88688329,196.62497 H 18.68509 a 76.73097,76.657655 0 0 1 71.424043,-71.27205 v 68.87425 a 9.0732918,9.0646228 0 0 0 -4.02272,7.52279 9.0732918,9.0646228 0 0 0 9.07173,9.06228 9.0732918,9.0646228 0 0 0 8.821497,-6.98757 c 0.38866,-0.2323 0.76239,-0.49648 1.09912,-0.83306 l 18.56157,-18.56151 c 2.09621,-2.09623 2.16608,-5.39794 0.15839,-7.40566 -2.0077,-2.00772 -5.30943,-1.93784 -7.40563,0.15814 l -16.18277,16.18279 v -68.02195 a 76.73097,76.657655 0 0 1 71.68059,76.40654 76.73097,76.657655 0 0 1 -76.732767,76.65681 76.73097,76.657655 0 0 1 -76.549071,-71.53175 H 0.81086529 A 94.53082,94.440496 0 0 0 95.158143,296.18911 94.53082,94.440496 0 0 0 189.68913,201.74996 94.53082,94.440496 0 0 0 95.158143,107.31082 Z"
       style="opacity:1;fill:none;fill-opacity:1;fill-rule:nonzero;stroke:#000000;stroke-width:1.62173963;stroke-linecap:round;stroke-linejoin:round;stroke-miterlimit:4;stroke-dasharray:none;stroke-dashoffset:0;stroke-opacity:1" />
  </g>
</svg>
