<?xml version="1.0" encoding="UTF-8" standalone="no"?>
<svg
   xmlns:dc="http://purl.org/dc/elements/1.1/"
   xmlns:cc="http://creativecommons.org/ns#"
   xmlns:rdf="http://www.w3.org/1999/02/22-rdf-syntax-ns#"
   xmlns:svg="http://www.w3.org/2000/svg"
   xmlns="http://www.w3.org/2000/svg"
   id="svg4688"
   version="1.1"
   viewBox="0 0 190.49999 190.50001"
   height="720"
   width="720">
  <defs
     id="defs4682" />
  <metadata
     id="metadata4685">
    <rdf:RDF>
      <cc:Work
         rdf:about="">
        <dc:format>image/svg+xml</dc:format>
        <dc:type
           rdf:resource="http://purl.org/dc/dcmitype/StillImage" />
        <dc:title></dc:title>
      </cc:Work>
    </rdf:RDF>
  </metadata>
  <g
     transform="translate(0,-106.49998)"
     id="layer1">
    <path
       id="path4496-7"
       d="M 95.158128,107.31084 A 94.530804,94.44048 0 0 0 0.88688562,196.62498 H 18.685088 a 76.730957,76.657642 0 0 1 71.42405,-71.27204 v 67.7656 l -16.80995,-16.80995 c -2.0962,-2.09617 -5.39792,-2.16923 -7.40562,-0.16121 -2.00771,2.00766 -1.93782,5.31256 0.15838,7.40878 l 18.56161,18.56158 c 0.47993,0.47994 1.02595,0.84158 1.60273,1.10858 a 9.0732903,9.0646213 0 0 0 8.94184,7.58623 9.0732903,9.0646213 0 0 0 9.074892,-9.06227 9.0732903,9.0646213 0 0 0 -4.02273,-7.52598 v -68.88086 a 76.730957,76.657642 0 0 1 71.68064,76.40653 76.730957,76.657642 0 0 1 -76.732802,76.6568 76.730957,76.657642 0 0 1 -76.54905,-71.53175 H 0.81086862 A 94.530804,94.44048 0 0 0 95.158128,296.18911 94.530804,94.44048 0 0 0 189.68913,201.74997 94.530804,94.44048 0 0 0 95.158128,107.31084 Z"
       style="opacity:1;fill:none;fill-opacity:1;fill-rule:nonzero;stroke:#000000;stroke-width:1.6217463;stroke-linecap:round;stroke-linejoin:round;stroke-miterlimit:4;stroke-dasharray:none;stroke-dashoffset:0;stroke-opacity:1" />
  </g>
</svg>
