<?xml version="1.0" encoding="UTF-8" standalone="no"?>
<svg
   xmlns:dc="http://purl.org/dc/elements/1.1/"
   xmlns:cc="http://creativecommons.org/ns#"
   xmlns:rdf="http://www.w3.org/1999/02/22-rdf-syntax-ns#"
   xmlns:svg="http://www.w3.org/2000/svg"
   xmlns="http://www.w3.org/2000/svg"
   xmlns:sodipodi="http://sodipodi.sourceforge.net/DTD/sodipodi-0.dtd"
   xmlns:inkscape="http://www.inkscape.org/namespaces/inkscape"
   id="svg4688"
   version="1.1"
   viewBox="0 0 190.49999 190.50001"
   height="720"
   width="720"
   sodipodi:docname="clock_6.svg"
   inkscape:version="0.92.1 r15371">
  <sodipodi:namedview
     pagecolor="#ffffff"
     bordercolor="#666666"
     borderopacity="1"
     objecttolerance="10"
     gridtolerance="10"
     guidetolerance="10"
     inkscape:pageopacity="0"
     inkscape:pageshadow="2"
     inkscape:window-width="1858"
     inkscape:window-height="1057"
     id="namedview7"
     showgrid="false"
     inkscape:zoom="0.32777778"
     inkscape:cx="-19.830508"
     inkscape:cy="360"
     inkscape:window-x="54"
     inkscape:window-y="-8"
     inkscape:window-maximized="1"
     inkscape:current-layer="layer1" />
  <defs
     id="defs4682" />
  <metadata
     id="metadata4685">
    <rdf:RDF>
      <cc:Work
         rdf:about="">
        <dc:format>image/svg+xml</dc:format>
        <dc:type
           rdf:resource="http://purl.org/dc/dcmitype/StillImage" />
        <dc:title />
      </cc:Work>
    </rdf:RDF>
  </metadata>
  <g
     transform="translate(0,-106.49998)"
     id="layer1">
    <path
       id="path4496-7"
       d="M 95.159526,107.31085 A 94.530808,94.440479 0 0 0 0.88827972,196.62498 H 18.686493 a 76.73096,76.657641 0 0 1 71.424044,-71.27203 v 68.87424 a 9.0732907,9.0646212 0 0 0 -4.022722,7.52278 9.0732907,9.0646212 0 0 0 4.127228,7.59567 c -0.01839,0.18757 -0.05516,0.37084 -0.05516,0.56391 v 26.24594 c 0,2.96447 2.285687,5.35308 5.125055,5.35308 2.839299,0 5.124992,-2.38861 5.124992,-5.35308 v -26.24594 c 0,-0.24701 -0.0368,-0.48422 -0.0699,-0.72218 a 9.0732907,9.0646212 0 0 0 3.89284,-7.43734 9.0732907,9.0646212 0 0 0 -4.02272,-7.52597 v -68.88061 a 76.73096,76.657641 0 0 1 71.68075,76.40652 76.73096,76.657641 0 0 1 -76.73281,76.6568 76.73096,76.657641 0 0 1 -76.549048,-71.53175 H 0.81086532 A 94.530808,94.440479 0 0 0 95.158116,296.18911 94.530808,94.440479 0 0 0 189.68913,201.74997 94.530808,94.440479 0 0 0 95.158116,107.31085 Z"
       style="opacity:1;fill:none;fill-opacity:1;fill-rule:nonzero;stroke:#000000;stroke-width:1.62163125;stroke-linecap:round;stroke-linejoin:round;stroke-miterlimit:4;stroke-dasharray:none;stroke-dashoffset:0;stroke-opacity:1" />
  </g>
</svg>
