<?xml version="1.0" encoding="UTF-8" standalone="no"?>
<svg
   xmlns:dc="http://purl.org/dc/elements/1.1/"
   xmlns:cc="http://creativecommons.org/ns#"
   xmlns:rdf="http://www.w3.org/1999/02/22-rdf-syntax-ns#"
   xmlns:svg="http://www.w3.org/2000/svg"
   xmlns="http://www.w3.org/2000/svg"
   xmlns:sodipodi="http://sodipodi.sourceforge.net/DTD/sodipodi-0.dtd"
   xmlns:inkscape="http://www.inkscape.org/namespaces/inkscape"
   id="svg4688"
   version="1.1"
   viewBox="0 0 190.49999 190.50001"
   height="720"
   width="720"
   sodipodi:docname="clock_3.svg"
   inkscape:version="0.92.1 r15371">
  <sodipodi:namedview
     pagecolor="#ffffff"
     bordercolor="#666666"
     borderopacity="1"
     objecttolerance="10"
     gridtolerance="10"
     guidetolerance="10"
     inkscape:pageopacity="0"
     inkscape:pageshadow="2"
     inkscape:window-width="1858"
     inkscape:window-height="1057"
     id="namedview7"
     showgrid="false"
     inkscape:zoom="0.65555556"
     inkscape:cx="171.98951"
     inkscape:cy="494.35571"
     inkscape:window-x="54"
     inkscape:window-y="-8"
     inkscape:window-maximized="1"
     inkscape:current-layer="layer1" />
  <defs
     id="defs4682" />
  <metadata
     id="metadata4685">
    <rdf:RDF>
      <cc:Work
         rdf:about="">
        <dc:format>image/svg+xml</dc:format>
        <dc:type
           rdf:resource="http://purl.org/dc/dcmitype/StillImage" />
        <dc:title />
      </cc:Work>
    </rdf:RDF>
  </metadata>
  <g
     transform="translate(0,-106.49998)"
     id="layer1">
    <path
       id="path4496-7-3"
       d="M 95.161405,107.31187 A 94.526916,94.438837 0 0 0 0.89949046,196.48009 H 18.688288 a 76.727803,76.656307 0 0 1 70.740087,-71.15741 v 69.36907 a 9.0729168,9.0644629 0 0 0 -3.403948,7.06709 9.0729168,9.0644629 0 0 0 9.07429,9.06429 9.0729168,9.0644629 0 0 0 7.490213,-3.9482 c 0.0696,0.002 0.13842,0.006 0.20886,0.006 h 26.248 c 2.96433,0 5.35081,-2.2858 5.35081,-5.12503 0,-2.83929 -2.38648,-5.12509 -5.35081,-5.12509 h -26.248 c -0.0748,0 -0.14736,0.006 -0.22104,0.012 a 9.0729168,9.0644629 0 0 0 -3.045683,-2.77576 V 125.31164 A 76.727803,76.656307 0 0 1 171.88952,201.7493 76.727803,76.656307 0 0 1 95.161177,278.4062 76.727803,76.656307 0 0 1 18.683605,206.72967 H 0.8112004 A 94.526916,94.438837 0 0 0 95.161177,296.18883 94.526916,94.438837 0 0 0 189.68879,201.7493 94.526916,94.438837 0 0 0 95.161177,107.31121 Z"
       style="opacity:1;fill:none;fill-opacity:1;fill-rule:nonzero;stroke:#000000;stroke-width:1.62240958;stroke-linecap:butt;stroke-linejoin:round;stroke-miterlimit:4;stroke-dasharray:none;stroke-dashoffset:0;stroke-opacity:1" />
  </g>
</svg>
