<?xml version="1.0" encoding="UTF-8" standalone="no"?>
<!DOCTYPE svg PUBLIC "-//W3C//DTD SVG 20010904//EN"
              "http://www.w3.org/TR/2001/REC-SVG-20010904/DTD/svg10.dtd">

<svg xmlns="http://www.w3.org/2000/svg"
     width="8in" height="8in"
     viewBox="0 0 720 720">
  <path id="Zaznaczenie"
        fill="none" stroke="black" stroke-width="1"
        d="M 8.85,318.00
           C 13.24,281.19 22.45,247.81 37.70,214.00
             55.62,174.25 79.17,140.83 110.00,110.00
             141.36,78.64 174.74,55.79 215.00,37.31
             249.14,21.63 292.53,10.65 330.00,7.91
             330.00,7.91 342.00,7.00 342.00,7.00
             342.00,7.00 380.00,7.00 380.00,7.00
             397.41,7.21 426.86,12.34 444.00,16.63
             496.18,29.67 542.19,52.24 584.00,86.26
             625.12,119.72 654.67,158.84 678.25,206.00
             695.54,240.58 707.05,281.57 711.16,320.00
             711.16,320.00 713.00,340.00 713.00,340.00
             713.00,340.00 713.00,378.00 713.00,378.00
             712.97,397.09 707.20,430.28 702.27,449.00
             672.85,560.51 590.15,653.43 481.00,692.31
             369.17,732.14 243.33,714.98 148.00,643.37
             134.84,633.49 118.33,619.80 107.04,608.00
             72.39,571.78 45.47,530.00 27.95,483.00
             17.73,455.58 7.00,411.11 7.00,382.00
             7.00,382.00 59.00,382.00 59.00,382.00
             61.30,382.00 65.26,381.59 66.83,383.57
             68.07,385.15 68.25,391.60 68.58,394.00
             68.58,394.00 72.80,420.00 72.80,420.00
             80.96,460.14 100.06,502.45 124.88,535.00
             168.50,592.19 227.71,631.07 298.00,646.58
             324.15,652.34 346.43,653.31 373.00,653.00
             391.21,652.78 420.34,647.45 438.00,642.42
             543.23,612.43 625.42,526.92 647.00,419.00
             649.74,405.29 652.83,385.83 653.00,372.00
             653.00,372.00 653.00,350.00 653.00,350.00
             653.00,350.00 652.09,338.00 652.09,338.00
             648.89,292.21 634.17,247.15 610.19,208.00
             598.09,188.26 586.27,174.06 570.83,157.00
             570.83,157.00 557.00,143.92 557.00,143.92
             519.47,109.39 477.26,87.69 428.00,75.37
             415.46,72.24 402.85,70.21 390.00,68.93
             386.40,68.45 378.39,66.98 375.31,68.93
             372.55,70.86 373.01,75.09 373.00,78.00
             373.00,78.00 373.00,324.00 373.00,324.00
             373.02,326.35 372.90,328.82 374.02,330.96
             375.39,333.58 385.24,342.39 388.00,343.40
             389.94,344.12 392.91,344.00 395.00,344.00
             395.00,344.00 483.00,344.00 483.00,344.00
             489.05,344.01 494.06,344.05 498.90,348.34
             506.88,355.44 505.38,368.69 496.00,373.86
             492.08,376.02 487.34,375.99 483.00,376.00
             483.00,376.00 395.00,376.00 395.00,376.00
             383.02,376.02 385.65,379.20 377.00,385.36
             372.83,388.34 366.12,390.59 361.00,390.91
             339.50,392.23 324.10,371.20 330.04,351.00
             334.47,335.94 340.97,341.62 341.00,327.00
             341.00,327.00 341.00,78.00 341.00,78.00
             340.99,75.46 341.32,71.52 339.40,69.60
             337.42,67.62 333.54,67.99 331.00,68.28
             331.00,68.28 311.00,71.08 311.00,71.08
             282.45,75.81 248.29,86.84 223.00,100.86
             155.83,138.11 112.79,187.91 84.60,259.00
             77.62,276.61 72.36,299.22 69.58,318.00
             69.10,321.24 68.23,334.42 66.26,336.01
             64.72,337.25 60.94,337.00 59.00,337.00
             59.00,337.00 7.00,337.00 7.00,337.00
             7.00,337.00 8.85,318.00 8.85,318.00 Z" />
</svg>
